<?xml version="1.0" standalone="no"?>
<!DOCTYPE svg PUBLIC "-//W3C//DTD SVG 20010904//EN"
 "http://www.w3.org/TR/2001/REC-SVG-20010904/DTD/svg10.dtd">
<svg version="1.0" xmlns="http://www.w3.org/2000/svg"
 width="1080.000000pt" height="1080.000000pt" viewBox="0 0 1080.000000 1080.000000"
 preserveAspectRatio="xMidYMid meet">
<metadata>
Created by potrace 1.11, written by Peter Selinger 2001-2013
</metadata>
<g transform="translate(0.000000,1080.000000) scale(0.100000,-0.100000)"
fill="#000000" stroke="none">
<path d="M4374 10311 c-14 -31 -41 -94 -60 -141 -19 -47 -43 -103 -53 -125
-10 -22 -76 -175 -145 -340 -70 -165 -134 -315 -142 -332 -8 -18 -20 -48 -28
-65 -8 -18 -85 -199 -171 -403 -163 -385 -170 -401 -203 -475 -11 -25 -50
-117 -87 -205 -37 -88 -100 -236 -140 -330 -40 -93 -150 -352 -245 -575 -374
-879 -492 -1156 -506 -1184 -8 -16 -14 -33 -14 -37 0 -5 -11 -32 -24 -61 -57
-126 -66 -147 -66 -152 0 -3 -11 -29 -24 -58 -14 -29 -50 -114 -81 -188 -32
-74 -65 -153 -75 -175 -10 -22 -36 -83 -58 -135 -22 -52 -124 -293 -227 -535
-103 -242 -250 -588 -327 -770 -77 -181 -148 -348 -158 -370 -19 -43 -321
-751 -506 -1189 -63 -147 -121 -282 -128 -300 -8 -17 -45 -103 -81 -191 -37
-88 -76 -180 -87 -204 -11 -24 -58 -135 -105 -245 -47 -111 -91 -214 -98 -231
-15 -33 -355 -833 -362 -851 -3 -8 289 -11 1102 -11 l1107 0 24 56 c35 77 40
91 54 131 7 19 21 53 31 75 17 38 121 292 265 650 35 88 69 169 74 180 11 24
296 724 316 775 7 19 41 105 76 190 l63 155 2085 0 2085 0 86 -210 c48 -115
130 -318 184 -450 53 -132 103 -253 110 -270 7 -16 48 -115 90 -220 42 -104
83 -203 90 -220 7 -16 32 -77 55 -135 23 -58 47 -118 55 -135 7 -16 52 -124
98 -240 47 -116 97 -237 110 -270 l25 -60 1136 -1 c625 -1 1136 0 1136 1 0 2
-33 81 -74 177 -41 95 -120 281 -176 413 -56 132 -108 254 -115 270 -23 51
-195 457 -195 461 0 2 -11 27 -24 56 -21 47 -188 438 -453 1063 -47 110 -93
218 -103 240 -10 22 -41 96 -70 165 -29 69 -60 143 -70 165 -10 22 -57 132
-105 245 -48 113 -93 219 -100 235 -8 17 -84 197 -170 400 -86 204 -163 384
-170 400 -7 17 -33 77 -58 135 -232 548 -331 780 -342 805 -7 17 -79 185 -160
375 -81 190 -153 359 -160 375 -18 40 -294 692 -305 719 -4 12 -17 42 -28 66
-23 51 -46 104 -280 655 -93 220 -268 630 -387 910 -120 281 -269 632 -332
780 -63 149 -121 284 -128 300 -7 17 -21 48 -30 70 -9 22 -56 132 -104 245
l-88 205 -1002 1 -1002 2 -25 -57z m1105 -2816 c13 -30 52 -127 61 -150 5 -11
15 -36 23 -55 8 -19 44 -107 80 -195 63 -156 77 -188 102 -250 13 -31 62 -150
204 -500 45 -110 86 -209 91 -220 5 -11 41 -99 80 -195 39 -96 75 -184 80
-195 5 -11 107 -258 226 -550 118 -291 222 -543 229 -560 7 -16 15 -37 18 -46
5 -14 -114 -16 -1299 -16 -754 0 -1304 4 -1304 9 0 5 47 125 105 266 58 141
144 352 191 467 47 116 92 224 99 240 7 17 70 170 139 340 69 171 132 324 140
340 8 17 89 215 181 440 91 226 172 424 180 440 7 17 32 77 55 135 23 58 48
119 55 135 18 42 135 325 147 355 9 23 14 13 59 -95 27 -66 53 -129 58 -140z"/>
</g>
</svg>
